<?xml version="1.0" encoding="utf-8"?>
<!-- Generator: Adobe Illustrator 26.0.1, SVG Export Plug-In . SVG Version: 6.00 Build 0)  -->
<svg version="1.1" id="Capa_1" xmlns="http://www.w3.org/2000/svg" xmlns:xlink="http://www.w3.org/1999/xlink" x="0px" y="0px"
	 viewBox="0 0 1366 768" style="enable-background:new 0 0 1366 768;" xml:space="preserve">
<style type="text/css">
	.st0{fill:#FFFFFF;}
</style>
<g id="Ciudad">
	<g>
		<g>
			<path class="st0" d="M948.1,319.5c0,87-64.1,157.5-143.1,157.5c-79.1,0-143.2-70.5-143.2-157.5S725.9,162,805,162
				C884,162,948.1,232.5,948.1,319.5z"/>
			<g>
				<path class="st0" d="M805,493.5c-87.2,0-158.2-78.1-158.2-174c0-95.9,71-174,158.2-174c87.2,0,158.1,78.1,158.1,174
					C963.1,415.4,892.2,493.5,805,493.5z M805,178.6c-70.7,0-128.2,63.2-128.2,140.9c0,77.7,57.5,140.9,128.2,140.9
					c70.7,0,128.2-63.2,128.2-140.9C933.2,241.8,875.7,178.6,805,178.6z"/>
				<path class="st0" d="M805,146c86.9,0,157.6,77.8,157.6,173.5S891.9,493,805,493c-86.9,0-157.7-77.8-157.7-173.5
					S718.1,146,805,146 M805,460.9c70.9,0,128.7-63.5,128.7-141.4S875.9,178.1,805,178.1c-71,0-128.7,63.5-128.7,141.4
					S734,460.9,805,460.9 M805,145c-87.5,0-158.7,78.3-158.7,174.5S717.5,494,805,494c87.5,0,158.6-78.3,158.6-174.5
					S892.5,145,805,145L805,145z M805,459.9c-70.4,0-127.7-63-127.7-140.4S734.6,179.1,805,179.1c70.4,0,127.7,63,127.7,140.4
					S875.4,459.9,805,459.9L805,459.9z"/>
			</g>
		</g>
		<g>
			<g>
				<path class="st0" d="M805,409.8c-45.2,0-82.1-40.5-82.1-90.3s36.8-90.3,82.1-90.3c45.3,0,82.1,40.5,82.1,90.3
					S850.3,409.8,805,409.8z"/>
				<path class="st0" d="M805,229.7c45,0,81.6,40.3,81.6,89.8S850,409.3,805,409.3c-45,0-81.6-40.3-81.6-89.8S760,229.7,805,229.7
					 M805,228.7c-45.6,0-82.6,40.7-82.6,90.8s37,90.8,82.6,90.8c45.6,0,82.6-40.7,82.6-90.8S850.6,228.7,805,228.7L805,228.7z"/>
			</g>
			<g>
				<path class="st0" d="M805,426.9c-53.8,0-97.5-48.2-97.5-107.4s43.8-107.4,97.5-107.4c53.8,0,97.6,48.2,97.6,107.4
					S858.8,426.9,805,426.9z M805,245.2c-37.3,0-67.6,33.3-67.6,74.3s30.3,74.3,67.6,74.3c37.3,0,67.6-33.3,67.6-74.3
					S842.3,245.2,805,245.2z"/>
				<path class="st0" d="M805,212.6c53.5,0,97.1,47.9,97.1,106.9S858.5,426.4,805,426.4c-53.5,0-97-47.9-97-106.9
					S751.5,212.6,805,212.6 M805,394.3c37.6,0,68.1-33.6,68.1-74.8s-30.6-74.8-68.1-74.8c-37.5,0-68.1,33.6-68.1,74.8
					S767.5,394.3,805,394.3 M805,211.6c-54.1,0-98,48.4-98,107.9s44,107.9,98,107.9c54.1,0,98.1-48.4,98.1-107.9
					S859.1,211.6,805,211.6L805,211.6z M805,393.3c-37,0-67.1-33.1-67.1-73.8s30.1-73.8,67.1-73.8c37,0,67.1,33.1,67.1,73.8
					S842,393.3,805,393.3L805,393.3z"/>
			</g>
		</g>
	</g>
</g>
</svg>
