<?xml version="1.0" encoding="utf-8"?>
<!-- Generator: Adobe Illustrator 25.4.1, SVG Export Plug-In . SVG Version: 6.00 Build 0)  -->
<svg version="1.1" id="Capa_1" xmlns="http://www.w3.org/2000/svg" xmlns:xlink="http://www.w3.org/1999/xlink" x="0px" y="0px"
	 viewBox="0 0 1366 768" style="enable-background:new 0 0 1366 768;" xml:space="preserve">
<style type="text/css">
	.st0{fill:#FFFFFF;}
</style>
<g>
	<circle class="st0" cx="765.5" cy="430.5" r="122"/>
	<path d="M765.5,309c32.5,0,63,12.6,85.9,35.6c22.9,22.9,35.6,53.5,35.6,85.9s-12.6,63-35.6,85.9C828.5,539.4,798,552,765.5,552
		s-63-12.6-85.9-35.6C656.6,493.5,644,463,644,430.5s12.6-63,35.6-85.9C702.5,321.6,733,309,765.5,309 M765.5,308
		C697.8,308,643,362.8,643,430.5S697.8,553,765.5,553S888,498.2,888,430.5S833.2,308,765.5,308L765.5,308z"/>
</g>
</svg>
