<?xml version="1.0" encoding="UTF-8"?><svg id="Capa_2" xmlns="http://www.w3.org/2000/svg" viewBox="0 0 92.25 92.37"><defs><style>.cls-1{fill:#eedaec;}.cls-2{fill:#1d1d1b;}</style></defs><g id="Capa_1-2"><g><circle class="cls-1" cx="46.13" cy="46.13" r="46.13"/><g><path class="cls-2" d="M37.99,46.31c-1.23,0-2.48-.19-3.71-.58-4.01-1.27-7.04-4.46-8.13-8.52L14.51,1.95c-.21-.62,.13-1.29,.75-1.5,.62-.2,1.29,.13,1.5,.75l11.66,35.36c.87,3.29,3.33,5.87,6.57,6.9,5.2,1.66,10.78-1.23,12.44-6.43,.8-2.52,.57-5.2-.64-7.55-1.21-2.35-3.27-4.08-5.79-4.89-.62-.2-.97-.87-.77-1.49s.87-.97,1.49-.77c3.12,.99,5.67,3.14,7.18,6.06s1.79,6.23,.79,9.36c-1.66,5.21-6.5,8.55-11.7,8.55Z"/><path class="cls-2" d="M72.72,92.36H18.9c-.65,0-1.19-.53-1.19-1.19s.53-1.19,1.19-1.19h53.82c.65,0,1.19,.53,1.19,1.19s-.53,1.19-1.19,1.19Z"/><path class="cls-2" d="M45.81,92.37c-.65,0-1.19-.53-1.19-1.19V51.55h1.19c15.18,0,18.09-14.27,18.12-14.42l.02-.1L74.18,1c.18-.63,.83-1,1.46-.82,.63,.18,1,.83,.82,1.46l-10.22,36c-.24,1.09-3.69,15.55-19.25,16.25v37.28c0,.65-.53,1.19-1.19,1.19Z"/></g></g></g></svg>