<?xml version="1.0" encoding="UTF-8"?><svg id="Capa_2" xmlns="http://www.w3.org/2000/svg" viewBox="0 0 122.92 92.79"><defs><style>.cls-1{fill:#fff;}.cls-2{fill:#f3a3be;}.cls-3{fill:#1d1d1b;}</style></defs><g id="Capa_1-2"><g><g><circle class="cls-1" cx="61.46" cy="46.4" r="38.33"/><path class="cls-3" d="M61.46,85.03c-21.3,0-38.63-17.33-38.63-38.63S40.16,7.77,61.46,7.77s38.63,17.33,38.63,38.63-17.33,38.63-38.63,38.63Zm0-76.67c-20.97,0-38.04,17.06-38.04,38.04s17.06,38.04,38.04,38.04,38.04-17.06,38.04-38.04S82.43,8.36,61.46,8.36Z"/></g><circle class="cls-2" cx="61.46" cy="46.4" r="45.98"/><g><path d="M57.79,92.79s-.07,0-.11,0c-5.99-.06-8.16-4.34-8.61-7.53H1.18C.53,85.25,0,84.72,0,84.07s.53-1.18,1.18-1.18H50.16c.61,0,1.12,.46,1.18,1.07,0,.03,0,.07,0,.1,.02,1.05,.41,6.31,6.36,6.37,6.33,.05,6.55-6.12,6.56-6.39,.02-.64,.54-1.15,1.18-1.15h56.29c.65,0,1.18,.53,1.18,1.18s-.53,1.18-1.18,1.18h-55.22c-.5,3.11-2.72,7.53-8.72,7.53Z"/><path d="M57.04,81.84c-.31,0-.62-.12-.85-.36-.11-.11-10.65-10.81-20.83-8.46-.64,.15-1.27-.25-1.42-.89-.15-.64,.25-1.27,.89-1.42,11.49-2.65,22.59,8.64,23.05,9.12,.45,.47,.44,1.22-.03,1.67-.23,.22-.53,.33-.82,.33Z"/><path d="M57.05,81.84c-.37,0-.74-.18-.97-.51-.37-.54-.24-1.27,.29-1.64,.7-.48,17.2-11.87,30.2-11.87,10.2,0,21.5,4.6,26.08,6.68-3-17.22-10.99-55.97-17.78-60.78-7.96-5.63-26.55,7.98-31.53,13.7-.29,.33-.73,.47-1.15,.38-.42-.1-.76-.42-.88-.84-.05-.19-5.26-18.87-15.94-22.8-9.6-3.53-23.09-.85-26.28-.13L3.25,72.8c5.43-5.1,17.38-14.88,28.2-13.67,6.58,.74,8.97,3.05,11.07,5.09,1.37,1.33,2.55,2.47,4.83,3.17,5.09,1.57,10.06-.75,12.07-5.63,1.22-2.97,1.57-8.47-2.51-11.46-5.94-4.36-9.78-2.31-9.94-2.22-.57,.32-1.29,.12-1.61-.44-.32-.56-.14-1.27,.42-1.6,.21-.12,5.26-2.98,12.53,2.36,5.17,3.8,4.8,10.61,3.29,14.26-2.46,5.96-8.74,8.89-14.95,6.98-2.83-.87-4.33-2.33-5.78-3.73-2.01-1.95-3.91-3.79-9.69-4.44-13.04-1.46-28.98,15.69-29.14,15.86-.36,.39-.95,.5-1.42,.25-.47-.25-.72-.79-.6-1.31L16.96,2.79c.1-.43,.43-.77,.86-.88,.68-.17,16.78-4.23,28.38,.04,9.74,3.58,15.09,17.26,16.8,22.43,6.63-6.49,24.3-18.92,33.25-12.58,9.2,6.51,18.13,58.63,19.12,64.55,.07,.44-.11,.88-.47,1.15-.36,.26-.84,.3-1.23,.1-.15-.07-14.77-7.41-27.1-7.41s-28.69,11.33-28.85,11.44c-.21,.14-.44,.21-.67,.21Z"/></g></g></g></svg>