<?xml version="1.0" encoding="UTF-8"?><svg id="Capa_2" xmlns="http://www.w3.org/2000/svg" viewBox="0 0 113.72 91.24"><defs><style>.cls-1{fill:#dceac8;}.cls-2{fill:#1d1d1b;}</style></defs><g id="Capa_1-2"><g><circle class="cls-1" cx="56.86" cy="45.62" r="45.62"/><g><path class="cls-2" d="M24.11,86.57c-.18,0-.36,0-.55,0h0c-.37,0-7.99-.07-10.5-4.7-1.31-2.41-.97-5.5,1.03-9.19-3.12-.14-8.95-.82-12.02-3.79-1.37-1.32-2.06-2.95-2.06-4.83,0-6.63,2.38-7.57,5.49-8.11,.68-.12,1.33-.23,1.94-.46,.26-.1,.39-.19,.43-.23-.07-.34-.84-1.49-3.81-3.41-2.06-1.33-3.22-3.68-3.03-6.13,.19-2.44,1.63-4.49,3.85-5.48,1.11-.5,2.4-.81,3.84-.92,4.3-.34,8.52,1.89,10.74,5.69,1.49,2.55,2.44,3.74,2.96,4.29,0-.13,.01-.29,.01-.48,0-6.84,5.66-8.65,8.65-8.65,.08,0,.17,0,.25,.03,8.34,1.8,9.13,11.03,8.39,15.66-.1,.64-.71,1.07-1.34,.97-.64-.1-1.07-.7-.97-1.34h0c.07-.45,1.67-11.1-6.44-12.96-1.03,.03-6.19,.5-6.19,6.3,0,.77,0,2.8-1.51,3.21-1.29,.35-2.71-.51-5.84-5.84-1.78-3.03-5.13-4.8-8.53-4.54-1.17,.09-2.21,.34-3.07,.72-1.43,.64-2.35,1.96-2.47,3.53-.12,1.62,.61,3.11,1.97,3.99,3.54,2.29,5.04,4.04,4.87,5.66-.07,.67-.46,1.58-1.93,2.14-.83,.32-1.65,.46-2.38,.58-2.21,.38-3.55,.61-3.55,5.8,0,1.24,.44,2.26,1.35,3.14,3.51,3.4,12.31,3.17,12.4,3.16,.43,0,.84,.22,1.06,.6,.21,.38,.2,.85-.04,1.21-2.4,3.71-3.07,6.59-2,8.57,1.54,2.84,6.65,3.47,8.49,3.48,8.18,.24,14.33-5.87,14.39-5.94,.12-.13,3.38-3.46,8.69-1.41,.6,.23,.9,.91,.67,1.52-.23,.6-.91,.9-1.52,.67-3.81-1.47-6.07,.77-6.17,.86-.28,.28-6.67,6.65-15.55,6.65Z"/><path class="cls-2" d="M46.02,79.13c-.65,0-1.17-.52-1.17-1.17s.52-1.17,1.17-1.17c3.06,0,5.55-2.49,5.55-5.55s-2.49-5.55-5.55-5.55c-.65,0-1.17-.52-1.17-1.17s.52-1.17,1.17-1.17c4.35,0,7.89,3.54,7.89,7.89s-3.54,7.89-7.89,7.89Z"/><g><path class="cls-2" d="M89.58,86.57c-8.85,0-15.24-6.36-15.51-6.64-.1-.1-2.37-2.34-6.18-.87-.6,.23-1.28-.07-1.52-.67-.23-.6,.07-1.28,.67-1.52,5.31-2.05,8.57,1.28,8.7,1.43,.05,.05,6.21,6.15,14.34,5.92,1.87,0,6.98-.63,8.52-3.48,1.07-1.98,.4-4.86-2-8.57-.24-.37-.25-.83-.04-1.21,.21-.38,.63-.6,1.06-.6,.09,0,8.88,.24,12.4-3.16,.91-.88,1.35-1.9,1.35-3.14,0-5.18-1.34-5.41-3.55-5.8-.73-.13-1.55-.27-2.38-.58-1.47-.56-1.86-1.48-1.93-2.14-.17-1.62,1.33-3.36,4.88-5.66,1.36-.88,2.09-2.37,1.97-3.99-.12-1.57-1.04-2.89-2.47-3.53-.86-.39-1.89-.63-3.07-.72-3.4-.27-6.76,1.51-8.53,4.54-3.13,5.33-4.55,6.19-5.84,5.84-1.51-.41-1.51-2.44-1.51-3.21,0-5.83-5.3-6.27-6.19-6.3-8.1,1.86-6.51,12.51-6.44,12.96,.1,.64-.33,1.24-.97,1.34-.64,.11-1.24-.33-1.34-.97-.75-4.63,.04-13.86,8.39-15.66,.08-.02,.16-.03,.25-.03h0c2.99,0,8.65,1.81,8.65,8.65,0,.18,0,.34,.01,.48,.53-.55,1.47-1.74,2.96-4.29,2.23-3.8,6.44-6.04,10.74-5.69,1.44,.12,2.73,.42,3.84,.92,2.22,.99,3.66,3.05,3.85,5.48,.19,2.45-.97,4.8-3.03,6.13-2.97,1.92-3.74,3.07-3.81,3.41,.05,.04,.17,.13,.43,.23,.61,.23,1.26,.35,1.94,.46,3.11,.54,5.49,1.48,5.49,8.11,0,1.88-.69,3.5-2.06,4.83-3.07,2.97-8.9,3.65-12.02,3.79,1.99,3.69,2.34,6.77,1.03,9.19-2.53,4.64-10.2,4.7-10.54,4.7h0c-.18,0-.36,0-.55,0Z"/><path class="cls-2" d="M67.7,79.13c-4.35,0-7.89-3.54-7.89-7.89s3.54-7.89,7.89-7.89c.65,0,1.17,.52,1.17,1.17s-.52,1.17-1.17,1.17c-3.06,0-5.55,2.49-5.55,5.55s2.49,5.55,5.55,5.55c.65,0,1.17,.52,1.17,1.17s-.52,1.17-1.17,1.17Z"/></g><path class="cls-2" d="M39.8,39c-.31,0-.62-.12-.85-.37-3.23-3.4-7.77-11.47-1.89-17.66,.06-.06,.12-.11,.19-.16,2.47-1.68,8.16-3.38,12.02,2.27,.1,.15,.2,.28,.28,.39,.13-.75,.23-2.27,.03-5.22-.24-3.45,0-9.6,4.23-12.01,1.42-.81,4.44-.9,5.6-.82,2.46,.18,4.41,1.13,5.66,2.77,1.31,1.73,1.71,4.09,1.16,6.82-1.24,6.08-.76,8.65-.34,8.94,0,0,.05,0,.14-.02,.73-.17,1.72-1.22,2.67-2.24,2.37-2.52,5.95-6.32,11.12-2.01,6.92,5.78-3.07,18.21-3.5,18.74-.41,.5-1.15,.58-1.65,.17-.5-.41-.58-1.15-.17-1.65,.09-.11,8.89-11.23,3.81-15.46-3.31-2.76-5.16-1.11-7.91,1.81-1.25,1.33-2.43,2.58-3.84,2.91-.89,.21-1.72,0-2.32-.58-1.43-1.38-1.54-5.11-.32-11.08,.42-2.05,.17-3.76-.73-4.94-.82-1.08-2.19-1.72-3.96-1.85-1.32-.1-3.59,.13-4.27,.51-3.12,1.78-3.26,6.92-3.06,9.82,.42,6.17-.27,7.68-1.53,8.11-1.48,.52-2.62-1.17-3.05-1.8-3.29-4.82-7.91-2.19-8.66-1.72-5.65,6.1,1.67,14,1.99,14.33,.44,.47,.42,1.21-.05,1.66-.23,.21-.52,.32-.81,.32Z"/><path class="cls-2" d="M58.22,57.39c-.65,0-1.17-.52-1.17-1.17V20.43c0-.65,.52-1.17,1.17-1.17s1.17,.52,1.17,1.17V56.21c0,.65-.52,1.17-1.17,1.17Z"/></g></g></g></svg>