<?xml version="1.0" encoding="UTF-8"?><svg id="Capa_2" xmlns="http://www.w3.org/2000/svg" viewBox="0 0 106.09 92.2"><defs><style>.cls-1{fill:#f9e5bb;}.cls-2{fill:#1d1d1b;}</style></defs><g id="Capa_1-2"><g><circle class="cls-1" cx="53.04" cy="46.1" r="46.1"/><g><path class="cls-2" d="M55.5,68.82h-5.46c-5.75,0-10.74-3.9-12.14-9.48l-3.61-14.44-.86-3.58c-.05-.22-.08-.45-.08-.68,.11-6.47,5.48-11.74,11.96-11.74s11.96,5.36,11.96,11.96c0,.65-.53,1.18-1.18,1.18s-1.18-.53-1.18-1.18c0-5.29-4.3-9.59-9.59-9.59s-9.5,4.22-9.59,9.42c0,.03,0,.06,.01,.09l.85,3.57,3.61,14.43c1.13,4.52,5.18,7.68,9.84,7.68h5.46c5.14,0,9.61-3.49,10.86-8.48l6.96-27.82c.74-2.95,.26-5.99-1.35-8.57-1.57-2.52-4.01-4.24-6.88-4.86-18.79-4.05-35.19,3.97-35.35,4.05-.59,.29-1.3,.05-1.59-.53-.29-.59-.06-1.3,.53-1.59,.7-.35,17.28-8.48,36.91-4.25,3.5,.75,6.48,2.86,8.39,5.93,1.92,3.08,2.51,6.87,1.63,10.4l-6.96,27.82c-1.51,6.05-6.92,10.27-13.16,10.27Z"/><path class="cls-2" d="M75.41,69.99c-1.64,0-3.28-.48-4.71-1.44l-.34-.23c-3.59-2.43-5.23-6.87-4.08-11.04l4.87-17.72c.17-.63,.82-1,1.46-.83,.63,.17,1,.83,.83,1.46l-4.87,17.72c-.88,3.2,.38,6.6,3.12,8.45l.34,.23c2.15,1.45,4.97,1.37,7.03-.2l18.6-14.15c1.76-1.34,2.86-3.37,3.02-5.58,.16-2.17-.62-4.3-2.14-5.84-3.2-3.25-6.96-5.97-11.17-8.07-.59-.29-.82-1-.53-1.59,.29-.59,1-.82,1.59-.53,4.44,2.22,8.41,5.09,11.8,8.53,1.99,2.03,3.02,4.82,2.81,7.67-.21,2.89-1.64,5.55-3.95,7.3l-18.6,14.15c-1.5,1.14-3.29,1.72-5.09,1.72Z"/><path class="cls-2" d="M31.2,70.34c-1.95,0-3.9-.62-5.54-1.85l-17.02-12.77c-2.68-2.01-4.32-5.09-4.5-8.44-.18-3.37,1.14-6.63,3.62-8.94,2.99-2.78,6.4-5.16,10.14-7.07,.58-.3,1.3-.07,1.59,.52,.3,.58,.07,1.3-.52,1.59-3.54,1.81-6.78,4.06-9.6,6.69-1.97,1.83-3.01,4.41-2.87,7.08,.14,2.65,1.44,5.08,3.56,6.67l17.02,12.77c2.35,1.77,5.57,1.84,7.99,.17,2.65-1.81,3.84-5.11,2.97-8.19l-3.64-12.91c-.18-.63,.19-1.28,.82-1.46,.63-.17,1.28,.19,1.46,.82l3.64,12.91c1.15,4.07-.42,8.4-3.91,10.79-1.58,1.08-3.4,1.62-5.22,1.62Z"/><path class="cls-2" d="M11.79,79.19c-2.49,0-4.95-.79-7.04-2.35-3.6-2.69-5.35-7.11-4.56-11.54l2.18-12.17c.16-.9,.77-1.64,1.62-1.98,.85-.34,1.8-.21,2.53,.34l22.01,16.43h0c.73,.55,1.12,1.42,1.04,2.33s-.62,1.7-1.43,2.11l-11.05,5.56c-1.69,.85-3.51,1.27-5.31,1.27Zm-6.83-25.85s-.07,0-.1,.02c-.06,.02-.14,.08-.16,.19l-2.18,12.17c-.64,3.59,.72,7.04,3.64,9.22,2.92,2.18,6.61,2.5,9.87,.87l11.05-5.56c.1-.05,.13-.14,.14-.2,0-.06,0-.16-.1-.23L5.1,53.4c-.05-.04-.1-.05-.15-.05Z"/><path class="cls-2" d="M94.3,79.19c-1.81,0-3.62-.42-5.31-1.27l-11.05-5.56c-.82-.41-1.35-1.2-1.43-2.11s.31-1.78,1.04-2.33h0l22.02-16.43c.73-.55,1.68-.67,2.53-.34,.85,.34,1.46,1.08,1.62,1.98l2.18,12.17c.79,4.43-.95,8.85-4.56,11.54-2.09,1.56-4.55,2.35-7.04,2.35Zm-15.33-9.37c-.09,.07-.11,.16-.1,.23,0,.06,.03,.15,.14,.21l11.05,5.56c3.26,1.64,6.95,1.32,9.87-.87,2.92-2.18,4.29-5.63,3.64-9.22l-2.18-12.17c-.02-.12-.1-.17-.16-.19-.06-.02-.15-.04-.24,.03l-22.02,16.43Z"/></g></g></g></svg>