<?xml version="1.0" encoding="UTF-8"?><svg id="Capa_2" xmlns="http://www.w3.org/2000/svg" viewBox="0 0 114.48 96.71"><defs><style>.cls-1{fill:#bbe2ed;}.cls-2{fill:#1d1d1b;}</style></defs><g id="Capa_1-2"><g><circle class="cls-1" cx="55.68" cy="48.36" r="46.73"/><g><g><path class="cls-2" d="M10.06,96.71c-.66,0-1.2-.54-1.2-1.2s.54-1.2,1.2-1.2c10.27,0,18.62-8.04,18.62-17.92,0-2.58-.79-5.35-2.34-8.22-6.62-7.5-10.26-17.13-10.26-27.15C16.08,18.4,34.48,0,57.11,0s41.03,18.4,41.03,41.03c0,9.98-3.55,19.54-9.99,26.93-1.56,2.83-2.35,5.65-2.35,8.39,0,9.88,8.35,17.92,18.62,17.92,.66,0,1.2,.54,1.2,1.2s-.54,1.2-1.2,1.2c-11.59,0-21.02-9.11-21.02-20.32,0-3.18,.91-6.44,2.71-9.66l.15-.21c6.11-6.96,9.48-16,9.48-25.44,0-21.3-17.33-38.63-38.63-38.63S18.48,19.73,18.48,41.03c0,9.47,3.46,18.58,9.75,25.65l.09,.1,.07,.12c1.79,3.27,2.7,6.46,2.7,9.49,0,11.2-9.43,20.32-21.02,20.32Z"/><path class="cls-2" d="M10.06,96.71c-5.55,0-10.06-4.51-10.06-10.06s4.51-10.06,10.06-10.06c.66,0,1.2,.54,1.2,1.2s-.54,1.2-1.2,1.2c-4.22,0-7.66,3.44-7.66,7.66s3.44,7.66,7.66,7.66c.66,0,1.2,.54,1.2,1.2s-.54,1.2-1.2,1.2Z"/></g><g><path class="cls-2" d="M40.21,96.71c-.66,0-1.2-.54-1.2-1.2s.54-1.2,1.2-1.2c6.26,0,11.36-4.9,11.36-10.91,0-2.66-1.01-5.22-2.84-7.22-.45-.49-.42-1.25,.07-1.7,.49-.45,1.25-.42,1.7,.07,2.24,2.44,3.47,5.58,3.47,8.84,0,7.34-6.17,13.32-13.76,13.32Z"/><path class="cls-2" d="M40.16,96.71c-3.76,0-6.81-3.06-6.81-6.81s3.06-6.81,6.81-6.81c.66,0,1.2,.54,1.2,1.2s-.54,1.2-1.2,1.2c-2.43,0-4.41,1.98-4.41,4.41s1.98,4.41,4.41,4.41c.66,0,1.2,.54,1.2,1.2s-.54,1.2-1.2,1.2Z"/></g><path class="cls-2" d="M104.42,96.66c-.66,0-1.2-.54-1.2-1.2s.54-1.2,1.2-1.2c4.22,0,7.66-3.44,7.66-7.66s-3.44-7.66-7.66-7.66c-.66,0-1.2-.54-1.2-1.2s.54-1.2,1.2-1.2c5.55,0,10.06,4.51,10.06,10.06s-4.51,10.06-10.06,10.06Z"/><g><path class="cls-2" d="M74.87,96.67c-7.59,0-13.76-5.97-13.76-13.32,0-3.26,1.23-6.4,3.47-8.84,.45-.49,1.21-.52,1.7-.07,.49,.45,.52,1.21,.07,1.7-1.83,1.99-2.84,4.56-2.84,7.22,0,6.02,5.1,10.91,11.36,10.91,.66,0,1.2,.54,1.2,1.2s-.54,1.2-1.2,1.2Z"/><path class="cls-2" d="M74.92,96.67c-.66,0-1.2-.54-1.2-1.2s.54-1.2,1.2-1.2c2.43,0,4.41-1.98,4.41-4.41s-1.98-4.41-4.41-4.41c-.66,0-1.2-.54-1.2-1.2s.54-1.2,1.2-1.2c3.76,0,6.81,3.06,6.81,6.81s-3.06,6.81-6.81,6.81Z"/></g><path class="cls-2" d="M45.46,50.27c-4.41,0-7.99-3.58-7.99-7.99s3.58-7.99,7.99-7.99,7.99,3.58,7.99,7.99-3.58,7.99-7.99,7.99Zm0-13.58c-3.08,0-5.59,2.51-5.59,5.59s2.51,5.59,5.59,5.59,5.59-2.51,5.59-5.59-2.51-5.59-5.59-5.59Z"/><path class="cls-2" d="M68.82,50.28c-4.41,0-7.99-3.58-7.99-7.99s3.58-7.99,7.99-7.99,7.99,3.58,7.99,7.99-3.58,7.99-7.99,7.99Zm0-13.58c-3.08,0-5.59,2.51-5.59,5.59s2.51,5.59,5.59,5.59,5.59-2.51,5.59-5.59-2.51-5.59-5.59-5.59Z"/></g></g></g></svg>