<?xml version="1.0" encoding="UTF-8"?><svg id="Capa_2" xmlns="http://www.w3.org/2000/svg" viewBox="0 0 91.24 95.59"><defs><style>.cls-1{fill:#f7bdc4;}.cls-2{fill:#1d1d1b;}</style></defs><g id="Capa_1-2"><g><circle class="cls-1" cx="45.62" cy="49.66" r="45.62"/><g><path class="cls-2" d="M52.49,95.51c-14.28,0-25.89-11.61-25.89-25.89,0-11.26,7.19-21.16,17.9-24.63l5.94-1.6c1.77-.48,3.37-1.37,4.63-2.58,2.92-2.81,4.53-6.58,4.53-10.63,0-1.37-.19-2.72-.55-4.02-1.34-1.73-9.88-13.79,1.14-25.77,.43-.47,1.15-.51,1.63-.09,.1,.09,10.42,9.23,5.75,22.36-.22,.61-.89,.93-1.5,.71-.61-.22-.93-.89-.71-1.5,3.41-9.61-2.05-16.66-4.24-18.99-9.15,11.01-.49,21.52-.11,21.97,.1,.12,.18,.27,.23,.42,.47,1.58,.71,3.23,.71,4.9,0,4.69-1.86,9.07-5.25,12.32-1.54,1.48-3.5,2.57-5.65,3.15l-5.88,1.59c-9.68,3.14-16.22,12.14-16.22,22.39,0,12.98,10.56,23.55,23.55,23.55,.65,0,1.17,.52,1.17,1.17s-.52,1.17-1.17,1.17Z"/><path class="cls-2" d="M18.27,78.29c-4.78,0-8.67-3.89-8.67-8.67s3.89-8.67,8.67-8.67,8.67,3.89,8.67,8.67-3.89,8.67-8.67,8.67Zm0-15c-3.49,0-6.33,2.84-6.33,6.33s2.84,6.33,6.33,6.33,6.33-2.84,6.33-6.33-2.84-6.33-6.33-6.33Z"/><path class="cls-2" d="M52.49,95.59c-.65,0-1.17-.52-1.17-1.17s.52-1.17,1.17-1.17c3.6,0,6.52-2.92,6.52-6.52s-2.92-6.52-6.52-6.52c-.65,0-1.17-.52-1.17-1.17s.52-1.17,1.17-1.17c4.89,0,8.86,3.98,8.86,8.86s-3.98,8.86-8.86,8.86Z"/><path class="cls-2" d="M70.32,95.59c-.65,0-1.17-.52-1.17-1.17V40.07c0-.38,.18-.73,.49-.95,.31-.22,.7-.28,1.06-.16,4.74,1.59,6.6-1.45,7.01-2.27-.11-4.07-2.92-6.51-8.35-7.23-.64-.09-1.09-.67-1.01-1.32,.09-.64,.69-1.09,1.32-1.01,6.7,.89,10.39,4.37,10.39,9.8,0,.15-.03,.29-.08,.43-.79,1.99-3.52,5.17-8.47,4.22v52.83c0,.65-.52,1.17-1.17,1.17Zm8.56-58.65h0Z"/></g></g></g></svg>