<?xml version="1.0" encoding="UTF-8"?><svg id="Capa_2" xmlns="http://www.w3.org/2000/svg" viewBox="0 0 91.81 91.69"><defs><style>.cls-1{fill:#dabedd;}.cls-2{fill:#1d1d1b;}</style></defs><g id="Capa_1-2"><g><circle class="cls-1" cx="45.9" cy="45.84" r="45.57"/><g><path class="cls-2" d="M45.84,69.59c-.58,0-1.15-.04-1.73-.13-3.04-.47-5.89-2.15-8.03-4.74-4.11-4.99-3.23-13.06,1.88-17.28,3.12-2.57,5.85-2.86,7.59-2.66,1.76,.21,3.29,1.02,4.19,2.22,2.31,3.07,.56,6.56-.69,7.97-.43,.48-1.17,.53-1.65,.1-.48-.43-.53-1.16-.11-1.65,.1-.12,2.31-2.72,.57-5.02-.4-.53-1.29-1.15-2.6-1.3-1.29-.15-3.35,.09-5.83,2.14-4.15,3.42-4.88,9.96-1.56,13.98,1.77,2.15,4.11,3.54,6.58,3.92,2.72,.41,5.43-.42,7.85-2.42,3.49-2.88,3.56-5.9,3.56-6.03,0-.64,.53-1.17,1.17-1.17h0c.64,0,1.16,.51,1.17,1.15,0,.17,0,4.22-4.41,7.85-2.45,2.02-5.17,3.06-7.96,3.06Z"/><path class="cls-2" d="M83.61,91.69H8.2c-4.52,0-8.2-3.68-8.2-8.2V34.75c0-4.52,3.68-8.2,8.2-8.2H83.61c4.52,0,8.2,3.68,8.2,8.2v48.74c0,4.52-3.68,8.2-8.2,8.2ZM8.2,28.9c-3.23,0-5.85,2.63-5.85,5.85v48.74c0,3.23,2.63,5.85,5.85,5.85H83.61c3.23,0,5.85-2.63,5.85-5.85V34.75c0-3.23-2.63-5.85-5.85-5.85H8.2Z"/><path class="cls-2" d="M28.06,28.5c-.64,0-1.17-.52-1.17-1.16,0-.61-.03-15.03,7.58-22.71,3.05-3.07,6.89-4.63,11.44-4.63,7.93,0,13.77,4.8,16.9,13.87,2.29,6.65,2.31,13.18,2.31,13.46,0,.65-.52,1.17-1.17,1.17h0c-.65,0-1.17-.52-1.17-1.17,0-.25-.19-24.98-16.86-24.98-3.89,0-7.18,1.32-9.77,3.94-6.93,6.99-6.9,20.9-6.9,21.04,0,.65-.51,1.17-1.16,1.18h0Z"/></g></g></g></svg>